<svg width="86" height="86" viewBox="0 0 86 86" fill="none" xmlns="http://www.w3.org/2000/svg">
<rect width="86" height="86" rx="14" fill="#D9D9D9"/>
<path fill-rule="evenodd" clip-rule="evenodd" d="M27.7128 69.5277V33.4109H15.7096V69.5276H27.7128V69.5277ZM21.7125 28.4816C25.8969 28.4816 28.5035 25.7059 28.5035 22.2401C28.4244 18.6973 25.8969 16 21.7909 16C17.6843 16.0001 15 18.6974 15 22.2402C15 25.706 17.6052 28.4817 21.6334 28.4817L21.7125 28.4816ZM34.3561 69.5277C34.3561 69.5277 34.5136 36.7996 34.3561 33.411H46.3612V38.6487H46.2815C47.86 36.184 50.7038 32.5629 57.179 32.5629C65.0788 32.5629 71 37.7249 71 48.8186V69.5278H58.9969V50.2063C58.9969 45.3514 57.2601 42.0385 52.915 42.0385C49.5995 42.0385 47.6236 44.2719 46.7559 46.4309C46.4384 47.1993 46.3612 48.2786 46.3612 49.3581V69.5277H34.3561Z" fill="black"/>
</svg>
