<svg width="215" height="232" viewBox="0 0 215 232" fill="none" xmlns="http://www.w3.org/2000/svg">
<g clip-path="url(#clip0_19_90)" filter="url(#filter0_f_19_90)">
<rect width="213" height="230" transform="translate(1 1)" fill="#FEFFD2"/>
<g filter="url(#filter1_f_19_90)">
<path d="M113 159C59 138 26 153.5 -6 116.5V238.5H217.5V227C192.667 206.167 135.741 167.844 113 159Z" fill="url(#paint0_linear_19_90)"/>
</g>
<g filter="url(#filter2_f_19_90)">
<path d="M130.238 124.22C60.0265 97.1766 32.8926 107.79 -14.5 40L-38.2636 83.7688C-18.4907 156.406 38 158 80.5 172.5C132.916 190.383 198.297 226.208 227.689 253L227.689 193.724C218.767 182.292 172.597 140.535 130.238 124.22Z" fill="url(#paint1_linear_19_90)"/>
</g>
<g filter="url(#filter3_f_19_90)">
<path d="M118.5 65C61 46 38 25 29.5 -11L-30 -6.5C-31.1667 -2.33333 -32.2 9.9 -27 25.5C-20.5 45 9.5 85 49.5 104.5C60.8333 112.333 92.8 130.1 130 138.5C176.5 149 177.5 163 248.5 191C252.5 186.167 259.9 159.5 255.5 135.5C250 105.5 176 84 118.5 65Z" fill="url(#paint2_linear_19_90)"/>
</g>
<g filter="url(#filter4_f_19_90)">
<path d="M182 42C165.129 35.2584 84.273 20.1404 75.5 -17.5L24 -14C24 -10.0674 25.6196 0.606741 32.0982 11.8427C40.1963 25.8876 83 66 116.454 79.2584C145.491 90.7662 214.982 95.5506 244 136V79.2584C231.178 69.8951 195.497 47.3933 182 42Z" fill="#117FAE"/>
</g>
<g filter="url(#filter5_f_19_90)">
<path d="M149.127 46.4412C141.069 39.8088 87.3431 21.1176 86 -3H223V79C220.09 77.9951 212.926 74.2971 207.554 67.5441C200.838 59.1029 157.186 53.0735 149.127 46.4412Z" fill="#36054E"/>
</g>
<g filter="url(#filter6_f_19_90)">
<path d="M190.993 58.5238C175.51 43.9713 131.752 43.9713 123 -9H226V69.5838C219.492 70.748 203.38 70.1659 190.993 58.5238Z" fill="#09000E"/>
</g>
<g filter="url(#filter7_f_19_90)">
<path d="M203.993 80.5238C188.51 65.9713 144.752 65.9713 136 13H239V91.5838C232.492 92.748 216.38 92.1659 203.993 80.5238Z" fill="#09000E" fill-opacity="0.38"/>
</g>
</g>
<defs>
<filter id="filter0_f_19_90" x="0" y="0" width="215" height="232" filterUnits="userSpaceOnUse" color-interpolation-filters="sRGB">
<feFlood flood-opacity="0" result="BackgroundImageFix"/>
<feBlend mode="normal" in="SourceGraphic" in2="BackgroundImageFix" result="shape"/>
<feGaussianBlur stdDeviation="0.5" result="effect1_foregroundBlur_19_90"/>
</filter>
<filter id="filter1_f_19_90" x="-26" y="96.5" width="263.5" height="162" filterUnits="userSpaceOnUse" color-interpolation-filters="sRGB">
<feFlood flood-opacity="0" result="BackgroundImageFix"/>
<feBlend mode="normal" in="SourceGraphic" in2="BackgroundImageFix" result="shape"/>
<feGaussianBlur stdDeviation="10" result="effect1_foregroundBlur_19_90"/>
</filter>
<filter id="filter2_f_19_90" x="-48.2636" y="30" width="285.953" height="233" filterUnits="userSpaceOnUse" color-interpolation-filters="sRGB">
<feFlood flood-opacity="0" result="BackgroundImageFix"/>
<feBlend mode="normal" in="SourceGraphic" in2="BackgroundImageFix" result="shape"/>
<feGaussianBlur stdDeviation="5" result="effect1_foregroundBlur_19_90"/>
</filter>
<filter id="filter3_f_19_90" x="-50.9476" y="-31" width="327.8" height="242" filterUnits="userSpaceOnUse" color-interpolation-filters="sRGB">
<feFlood flood-opacity="0" result="BackgroundImageFix"/>
<feBlend mode="normal" in="SourceGraphic" in2="BackgroundImageFix" result="shape"/>
<feGaussianBlur stdDeviation="10" result="effect1_foregroundBlur_19_90"/>
</filter>
<filter id="filter4_f_19_90" x="-2" y="-43.5" width="272" height="205.5" filterUnits="userSpaceOnUse" color-interpolation-filters="sRGB">
<feFlood flood-opacity="0" result="BackgroundImageFix"/>
<feBlend mode="normal" in="SourceGraphic" in2="BackgroundImageFix" result="shape"/>
<feGaussianBlur stdDeviation="13" result="effect1_foregroundBlur_19_90"/>
</filter>
<filter id="filter5_f_19_90" x="60" y="-29" width="189" height="134" filterUnits="userSpaceOnUse" color-interpolation-filters="sRGB">
<feFlood flood-opacity="0" result="BackgroundImageFix"/>
<feBlend mode="normal" in="SourceGraphic" in2="BackgroundImageFix" result="shape"/>
<feGaussianBlur stdDeviation="13" result="effect1_foregroundBlur_19_90"/>
</filter>
<filter id="filter6_f_19_90" x="97" y="-35" width="155" height="131" filterUnits="userSpaceOnUse" color-interpolation-filters="sRGB">
<feFlood flood-opacity="0" result="BackgroundImageFix"/>
<feBlend mode="normal" in="SourceGraphic" in2="BackgroundImageFix" result="shape"/>
<feGaussianBlur stdDeviation="13" result="effect1_foregroundBlur_19_90"/>
</filter>
<filter id="filter7_f_19_90" x="110" y="-13" width="155" height="131" filterUnits="userSpaceOnUse" color-interpolation-filters="sRGB">
<feFlood flood-opacity="0" result="BackgroundImageFix"/>
<feBlend mode="normal" in="SourceGraphic" in2="BackgroundImageFix" result="shape"/>
<feGaussianBlur stdDeviation="13" result="effect1_foregroundBlur_19_90"/>
</filter>
<linearGradient id="paint0_linear_19_90" x1="113.5" y1="178" x2="90" y2="253" gradientUnits="userSpaceOnUse">
<stop stop-color="#FEDD94"/>
<stop offset="0.355205" stop-color="#FFEABD"/>
<stop offset="0.581241" stop-color="#F6F3DF"/>
<stop offset="0.810437" stop-color="#EDFCFF"/>
<stop offset="1" stop-color="white"/>
</linearGradient>
<linearGradient id="paint1_linear_19_90" x1="107" y1="125.5" x2="90" y2="188.5" gradientUnits="userSpaceOnUse">
<stop stop-color="#FA7FFD"/>
<stop offset="1" stop-color="#FFE68E"/>
</linearGradient>
<linearGradient id="paint2_linear_19_90" x1="96.5" y1="56.5" x2="64" y2="122.5" gradientUnits="userSpaceOnUse">
<stop stop-color="#3A12AC"/>
<stop offset="0.319168" stop-color="#5F40B7"/>
<stop offset="0.61409" stop-color="#C31EFB" stop-opacity="0.898233"/>
<stop offset="1" stop-color="#FD85FF"/>
</linearGradient>
<clipPath id="clip0_19_90">
<rect width="213" height="230" fill="white" transform="translate(1 1)"/>
</clipPath>
</defs>
</svg>
